<?xml version="1.0" encoding="utf-8"?>
<!-- Generator: Adobe Illustrator 21.1.0, SVG Export Plug-In . SVG Version: 6.00 Build 0)  -->
<svg version="1.1" id="logo-owl" xmlns="http://www.w3.org/2000/svg" xmlns:xlink="http://www.w3.org/1999/xlink" x="0px" y="0px"
	 viewBox="0 0 1366 768" style="enable-background:new 0 0 1366 768;" xml:space="preserve">
<style type="text/css">
	.st0{fill:#FF8900;}
	.st1{fill:#333333;}
	.st2{fill:#FFFFFF;}
</style>
<title>OWL Logo</title>
<path id="bg-orange" class="st0" d="M1187.2,646.6H258.9c-66.3,0-120-53.7-120-120V169.4c0-66.3,53.7-120,120-120h928.3
	c65.8,0,24-42.2,24,24V624C1210.8,688.8,1253,646.6,1187.2,646.6z"/>
<path id="bg-gray" class="st1" d="M1124.8,627.4l-11.8-19.7l-64.6-67.7l-125.3-82.3L762.4,360L639.6,206.6l-24-74.9l17.3-57.4
	l20.2-24H167c-15.2,0.1-27.5,12.4-27.6,27.6v540.7c0,15.3,12.3,27.7,27.6,27.8h954.7L1124.8,627.4z"/>
<path id="bg-white" class="st2" d="M1182.9,13H167c-35.6,0.1-64.4,29-64.6,64.6v541.2c0,35.7,28.9,64.7,64.6,64.8h1015.9
	c35.5-0.4,64.1-29.3,64.1-64.8V77.5C1246.9,42.1,1218.3,13.4,1182.9,13z M139.4,618.7V77.5c0-15.3,12.3-27.7,27.6-27.8h476.9
	c-2.5,6.2-7.5,11.1-13.7,13.4c-5.4,2.1-11.1,3.7-16.8,4.8c-4.9,1.1-9.7,2.4-14.4,4.1c-4.7,1.5-9.2,3.8-13.2,6.7
	c-2.2,1.9-4.2,3.9-6,6.2c-1.4,1.8-2.7,3.8-3.8,5.8l-2.6,3.6c2.8-8.7,4.1-17.8,3.8-26.9c0,4.8-12.5,15.6-19,21.4
	c-7.7,5.5-12.1,14.5-11.8,24c-1.3,0.3-2.5,0.8-3.6,1.4c-5.3,3.8-7.7,6-13.7,4.6c-1.9-0.6-3.8-1.4-5.5-2.4h-2.2
	c3.2,5.4,7.7,9.9,13.2,13c1.2,0.6,2.3,1.5,3.1,2.6l-4.6,9.8c-2.4,4.4-2.4,9.8,0,14.2l6.5,10.8l1.9,1.9c-0.4-3.3-0.4-6.7,0-10.1
	c0.3-4.3,3-8.1,7-9.8c0,0,0,2.6,0,4.8c-0.5,2.2-0.5,4.5,0,6.7c0.6,1.2,1.2,2.4,1.9,3.6c1.9,2.9,1.9,6.7,0,9.6
	c-0.9,1.4-2.1,2.7-3.4,3.8c-1.2,0-1.9,1.4-2.4,2.9c1,0.8,2.2,1.4,3.4,1.9l5,1.9c2.2,0,5.3,2.2,5.3,4.6c-0.1,1.1-0.7,2.1-1.7,2.6
	l-7.2,3.6l-4.1,2.2l-6.7,1.7c-10.7,2.1-21.5,3.4-32.4,3.8c-3.8,0.3-7.5-0.5-10.8-2.4c-9.3-5.7-20.1-8.5-31-8.2
	c-9.2,1.1-18.2,3.2-26.9,6.2c-6.1,2-12.5,3-19,2.9c-3,0.3-6-0.4-8.6-1.9c0,0-1.7-1.4-8.9,0c-3-0.2-6.1-0.2-9.1,0l-1.9,2.9
	c-1-0.4-2-1-2.9-1.7c-3.9-2.4-8.4-3.4-13-2.9c-1.8,0.3-3.7,0.3-5.5,0c0.7-2.3,1.2-4.6,1.4-7c0.6-1.2,0.6-2.6,0-3.8l-3.8-6
	c0,0,0,0-2.2-1.4c-2-0.5-3.8-1.5-5.3-2.9c-2.5-2.4-5.9-3.7-9.4-3.6c-1.4,0.7-3.1,0.7-4.6,0c-2.5-1.5-5.6-1.5-8.2,0
	c-3.4,1.5-7.1,2.2-10.8,1.9l-70.1,1.7c-1.3-0.1-2.5-0.7-3.4-1.7c-1.4-1.1-3.4-1.1-4.8,0v9.1H239c0,0-1.9-4.6-8.2-1.9
	c0,2.2,0,3.1,0,3.1l0,0c-1.3-0.1-2.6-0.1-3.8,0c-0.2,3.5-0.2,7,0,10.6h3.8v6.7c1.8,2.4,4.6,3.9,7.7,3.8c2.6,0,6,0,8.2,2.9
	c3.8,6.1,8.1,11.8,13,17c2.9,2.6,7,7.9,30.7,12.5c7.9,1.4,15.9,2.2,24,2.4c1.2,1.2,9.4,10.6,9.4,10.6s0,2.6,6.7,3.6
	c10.2,2.5,20.5,4.4,31,5.8c3.4,0,4.6,0,7.7-1.7c2.4-1.6,4.1-4,4.8-6.7v-3.1h1.2c5.3-3.3,10.2-7.3,14.4-12c0.4,1.1,0.9,2.1,1.4,3.1
	c0,0,0,2.4,6,2.4c8.9-0.1,17.7,1.9,25.7,5.8c3.9,1.9,7.5,4.4,10.6,7.4c6.5,6.3,15,10.2,24,10.8l30.5,2.6c4.4,0.7,8.9,0.2,13-1.4
	c3.4-0.8,5.8-3.7,6-7.2c0-1.9,0-5,0-5.8v-2.4c1.2-0.4,2.4-0.4,3.6,0l31.4,11c0,0,2.9,0,1.9-5c-1-5-1.2-7.7-1.2-7.7
	c-0.3-1.3,0.6-2.6,1.9-2.8c0.1,0,0.2,0,0.3,0c3.6,0,7.1,0.5,10.6,1.4c6.1,1,12.4,1,18.5,0l5.8-1.7l0,0c4.3-1.4,4.8-2.2,6-1.2
	c1.3,3.4,1.9,7.1,1.7,10.8c0,2.9,1.1,5.6,3.1,7.7l19.4,20.4l6.2,6.7c2.1,2.3,5,3.7,8.2,3.8l7.7,1.7c3.3,1.2,6.8,1.2,10.1,0
	c3.1-1.4,6.5-1.4,9.6,0l28.3,6.2l1.4,3.4v1.7c0,0,1.7,5,2.6,6.7l7.2,13.7c0,0-5,2.6-16.8,7.7c-44.3,19.6-83.5,49.4-114.2,86.9l0,0
	l0,0c-7,8-12,17.7-14.4,28.1c0.4,3.4,1.8,6.6,4.1,9.1c3.6,4.6,6.7,9.4,10.6,11s2.4,2.2,16.3,2.4H594c5.2,0.1,10.4-0.6,15.4-1.9
	l15.8-4.1c2.9,0,6.2-1.7,15.1-5c25.6-9.8,53-13.9,80.4-12.2l1.7,2.4c0,0,0,1.7,5.3,2.6c11.2,3.2,21.9,7.5,32.2,13
	c3.5,2.2,6.6,4.8,9.4,7.9c2.6,3.4,7,7.2,13.2,14.9c2.6,3.2,5.1,6.6,7.4,10.1c2.1,3,4.5,5.9,7,8.6c1.3,1.3,2.1,3,2.4,4.8
	c0.3,2.6,1.5,4.9,3.4,6.7c2.4,2.4,4.6,5.3,7.9,1.4s0,0,0-10.8c0-10.8,0-11.5,1.4-13c2.1-2.2,3.2-5.1,3.1-8.2c0-3-1.8-5.8-4.6-7
	c0.9-4,0.3-8.2-1.7-11.8c-1.1-1.3-2.6-2-4.3-2.2c-1.2-4.3-4.3-7.8-8.4-9.6c-3.6-2.2-5.8-3.1-11-13c0,0-2.4-5-3.4-8.6
	c-1-3.6,3.4-2.9,3.1-13.7l9.6,5.3l21.1,10.6c16.8,8.5,34.5,15.1,52.8,19.7l8.9,1.9c2,0.2,3.8,1,5.3,2.4c4.4,3.9,9.1,7.5,13.9,10.8
	c6.1,3.5,12.8,5.8,19.7,7c6.2,0.6,12.2,2.3,17.8,5c0,0,28.8,14.9,39.4,19.7c14.6,7.1,28.7,15.2,42.2,24l15.1,9.4
	c0,0,4.1,3.1,9.8,8.4l16.8,15.1l1.9,2.4h-4.1v7.4c0,0,11.8,8.2,20.6,14.6c7.7,6,14.8,12.7,21.4,19.9l17,15.8l0,0c0,0,5.3,5,3.6,6.7
	c-3.9,3.5-6.4,8.3-7.2,13.4H167C152,645.7,139.8,633.7,139.4,618.7z M633.1,92.4L633.1,92.4z M342.2,238.6l-7.2-1.4
	c-1.8-0.3-3.5-1.3-4.8-2.6c-2.6-1.7-4.5-4.3-5.5-7.2l-1.9-6.7c1.8-0.3,3.7-0.3,5.5,0h2.9c0.6,1.9,1.5,3.8,2.6,5.5
	c1.6,1.6,2.8,3.4,3.6,5.5c0.3,1.3,1.1,2.5,2.2,3.4c1.2,0.7,1.9,2,1.7,3.4L342.2,238.6z M740.6,414.2c-1.7,1.7-2.4,2.9-4.8,5.5
	c-12.9,0.8-25.8,0.8-38.6,0c0-2.4,1.9-2.4,5.5-3.4c11.8-4.1,23.1-9.2,34.1-15.1c2.4-1.7,4.9-3.2,7.4-4.6l3.1,1.4v1.4l-1.9,2.6
	c-1.5,1.5-2.4,3.6-2.4,5.8C743.2,410.3,742.3,412.6,740.6,414.2z M1210.5,618.7c-0.1,15.2-12.4,27.5-27.6,27.6h-45.6
	c2.1-0.9,3.8-2.5,4.8-4.6c2.3-6.1,3.9-12.5,4.8-19c-0.2-2.1-1.2-4.1-2.9-5.5c-4.8-2.9-8.9-6.9-11.8-11.8l-5.3-8.6
	c2.6-3.2,3.6-7.3,2.9-11.3c-0.6-3.3-1.5-6.5-2.9-9.6c-2.1-7.9-5.9-15.3-11-21.6c-1.1-1-1.9-2.2-2.4-3.6c0,0,0,0-2.6-2.4
	c-2.7-1.6-5.8-2.4-8.9-2.4l-4.6,5.5h-5.5c-1.2,0-2.4,0-6,1.7l-3.6,2.2l-1.9-1.2c-9.3-7.4-18.2-15.4-26.4-24
	c-19.2-18.7-35.5-38.6-35.5-38.6c-5.7-7.7-12.1-14.9-19-21.6c-9.4-7.8-19.9-14.2-31.2-19c-13.2-4.8-27-7.7-41-8.4
	c-6.3-2-11.9-5.7-16.3-10.6c-7.7-7.9-30.2-24-43.2-37l-29.5-25.4c-24-20.2-35.8-28.3-35.8-28.3c-6-6.8-10-15.1-11.5-24
	c-2.7-8.8-7.1-17-13-24c-7.6-7.8-16.4-14.3-26.2-19.2c-4.2-2.2-8.1-4.9-11.5-8.2c0.2-2.4,0.2-4.8,0-7.2c0-5.3-1.4-15.6-1.9-16.8
	l-5.8-3.6v-6l4.1-3.4c0,0,2.2,0,1.9-5.5c-0.2-5.5,0-9.4,0-9.4s0-2.9-3.4-7.4l-24-32.4L708,168c-1.3-1.6-3.2-2.7-5.3-2.9l-7.7-2.4
	c-1.6-0.6-3.4-0.6-5,0c-1.7,0.7-3.6,0.7-5.3,0l-8.4-2.2l-5.3-7c-0.8-1.1-1.9-2-3.1-2.6l-7.4-4.8l-16.6,4.8H642h-1.7l-2.2-11.3l9.1-7
	c3.3-2.5,6.5-5.1,9.6-7.9l5.3-5c-5.9,0.6-11.9,0.6-17.8,0h-1.4l1.9-2.2c20.4-19.9,22.3-31.9,24-35.5c-4.4,3.9-9.8,6.5-15.6,7.4
	l-10.6,1.9c9.8-11.2,15.3-25.6,15.4-40.6h524.9c15.2,0.1,27.5,12.4,27.6,27.6V618.7z"/>
</svg>
